# xmcd CD database file
#
# Track frame offsets:
#	150
#	17967
#	37855
#
# Disc length: 741 seconds
#
# Revision: 0
# Processed by: cddbd v1.5.1PL0 Copyright (c) Steve Scherf et al.
# Submitted via: CDex 1.51
#
DISCID=1902e303
DTITLE=横山知枝 - FOR YOU
DYEAR=1991
DGENRE=JPop
TTITLE0=FOR YOU
TTITLE1=FOR ME
TTITLE2=FOR YOU(オリジナル・カラオケ）
EXTD=YEAR: 1991
EXTT0=
EXTT1=
EXTT2=
PLAYORDER=
